<svg xmlns="http://www.w3.org/2000/svg" width="30" height="30" viewBox="0 0 24 24" fill="none" stroke="#c9d1d9" stroke-width="1.5" stroke-linecap="round" stroke-linejoin="round">
  <path d="M14.983 3l.123 .006c2.014 .214 3.527 .672 4.966 1.673a1 1 0 0 1 .371 .488c1.876 5.315 2.373 9.987 1.451 12.28c-.84 2.133 -2.979 3.553 -5.136 3.553c-.738 0 -1.334 -.23 -1.729 -.697l-.395 -.473c1.818 -.837 2.664 -1.889 2.664 -1.889c-.53 .35 -1.036 .595 -1.508 .77a9.193 9.193 0 0 1 -1.537 .423a10.957 10.957 0 0 1 -2.945 .029a12.133 12.133 0 0 1 -1.641 -.394a9.098 9.098 0 0 1 -1.445 -.646c-.07 -.04 -.135 -.077 -.2 -.116c-.044 -.026 -.087 -.051 -.129 -.078l-.05 -.031s.82 1.019 2.591 1.852l-.394 .473c-.397 .467 -.993 .697 -1.731 .697c-2.157 0 -4.296 -1.42 -5.135 -3.553c-.921 -2.293 -.426 -6.965 1.45 -12.28a1 1 0 0 1 .37 -.488c1.439 -1.001 2.952 -1.459 4.966 -1.673a1 1 0 0 1 .123 -.006l.716 1.353a11.065 11.065 0 0 1 1.459 -.116c.487 0 .978 .04 1.459 .116l.716 -1.353z"/>
  <path d="M9.5 14.5m-1 0a1 1 0 1 0 2 0a1 1 0 1 0 -2 0"/>
  <path d="M14.5 14.5m-1 0a1 1 0 1 0 2 0a1 1 0 1 0 -2 0"/>
</svg>
